Coordinates
version=1
nRows=15
nColumns=19
inDegrees=yes

Units are S.I. units (second, meters, Newtons, ...)
If the header above contains a line with 'inDegrees', this indicates whether rotational values are in degrees (yes) or radians (no).

endheader
time	pelvis_tilt	pelvis_list	pelvis_rotation	pelvis_tx	pelvis_ty	pelvis_tz	hip_flexion_r	hip_adduction_r	hip_rotation_r	knee_angle_r	knee_angle_r_beta	ankle_angle_r	hip_flexion_l	hip_adduction_l	hip_rotation_l	knee_angle_l	knee_angle_l_beta	ankle_angle_l
     16.44000000	      1.41015695	      8.87204602	      2.92092973	      2.29002567	      0.98945640	      1.00098377	    -17.56487776	    -12.03561250	    -12.86291835	     62.35242862	      1.08825518	     -4.82777009	     15.79293719	      9.39297272	    -10.98972221	     11.02187531	      0.19236801	      0.57674631
     16.44666667	      1.90301865	      9.34537644	      3.13404988	      2.28879894	      0.98608174	      0.99962950	    -16.84513306	    -12.81273646	    -12.58951418	     66.38918268	      1.15870983	     -4.04427407	     15.02658962	     10.03007105	    -11.35158372	     11.43480985	      0.19957508	      0.34905061
     16.45333333	      1.84269924	      9.81357007	      3.22677133	      2.28741851	      0.98191965	      0.99845254	    -15.28814265	    -13.66955586	    -11.99889679	     70.53600978	      1.23108561	     -3.41404900	     15.03158842	     10.54636808	    -12.06433117	     12.54111280	      0.21888371	      0.28440476
     16.46000000	      1.89924479	     10.36995561	      3.40273152	      2.28579895	      0.97757067	      0.99739121	    -13.81984750	    -14.57531331	    -11.49536372	     74.56565525	      1.30141619	     -2.72790680	     15.05972350	     11.07523800	    -12.71208862	     14.30509759	      0.24967105	      0.58637927
     16.46666667	      1.84176278	     10.82581228	      3.63669500	      2.28392385	      0.97292250	      0.99652993	    -12.09544643	    -15.31577514	    -10.88541490	     78.49927297	      1.37007077	     -2.11857944	     15.36746118	     11.40041930	    -13.31715541	     16.70555992	      0.29156702	      1.28830941
     16.47333333	      1.73797892	     11.21792838	      3.81853544	      2.28189861	      0.96809465	      0.99603724	    -10.16510270	    -15.94017517	    -10.09244074	     82.31355621	      1.43664257	     -1.58003242	     15.77676339	     11.56351898	    -13.85467252	     19.47645419	      0.33992825	      2.36275221
     16.48000000	      1.61857517	     11.45307842	      4.03734820	      2.27964766	      0.96320662	      0.99585367	     -8.07759285	    -16.30913206	     -9.20768327	     85.95684124	      1.50022989	     -1.11066706	     16.23618069	     11.49947179	    -14.18256113	     22.54220493	      0.39343570	      3.77776492
     16.48666667	      1.55467036	     11.50627443	      4.17998342	      2.27722270	      0.95846822	      0.99608114	     -5.86949331	    -16.39201003	     -8.14756658	     89.39628076	      1.56025944	     -0.76830215	     16.59332079	     11.19851738	    -14.29296472	     25.67654906	      0.44814032	      5.52584824
     16.49333333	      1.49426981	     11.42205336	      4.30609763	      2.27469845	      0.95392429	      0.99660341	     -3.53546719	    -16.26011411	     -7.03803239	     92.60022354	      1.61617879	     -0.46557674	     16.84853912	     10.75112558	    -14.14814436	     28.73764757	      0.50156657	      7.45518466
     16.50000000	      1.47824531	     11.17657695	      4.36455692	      2.27195468	      0.94974026	      0.99740795	     -1.08238758	    -15.89133827	     -5.85544017	     95.55622897	      1.66777082	     -0.25469615	     16.93007620	     10.15130316	    -13.78679421	     31.58969221	      0.55134414	      9.53461894
     16.50666667	      1.64377507	     10.77168758	      4.33777697	      2.26913510	      0.94619364	      0.99842205	      1.28614495	    -15.27932542	     -4.66663403	     98.17884671	      1.71354413	     -0.11869256	     16.64685638	      9.40136833	    -13.26131428	     34.13198556	      0.59571553	     11.67419952
     16.51333333	      1.74989320	     10.30023258	      4.25648642	      2.26626487	      0.94305273	      0.99949760	      3.81953392	    -14.59499150	     -3.49846797	    100.50781552	      1.75419230	      0.00044522	     16.23611243	      8.61448968	    -12.68617264	     36.30400805	      0.63362447	     13.75308249
     16.52000000	      2.09694063	      9.74271073	      4.05758481	      2.26342428	      0.94074013	      1.00064600	      6.14379862	    -13.78140146	     -2.37937350	    102.44444339	      1.78799284	      0.10833537	     15.34383170	      7.74623806	    -12.12262204	     38.04200981	      0.66395833	     15.70877232
     16.52666667	      2.41669563	      9.16753169	      3.78172816	      2.26069335	      0.93897317	      1.00172918	      8.53137558	    -12.96604773	     -1.30761135	    104.02473019	      1.81557405	      0.20087828	     14.25589383	      6.88341710	    -11.66797161	     39.34927081	      0.68677433	     17.45897028
     16.53333333	      2.92988107	      8.58936883	      3.42181673	      2.25814478	      0.93799542	      1.00270974	     10.67318133	    -12.15397979	     -0.33940164	    105.18530461	      1.83582989	      0.34973498	     12.71802612	      6.03990044	    -11.31803111	     40.19843943	      0.70159512	     18.94811410
